<svg width="10" height="12" viewBox="0 0 10 12" fill="none" xmlns="http://www.w3.org/2000/svg">
<path d="M4.99984 0.166504C2.74234 0.166504 0.916504 1.99234 0.916504 4.24984C0.916504 6.68234 3.49484 10.0365 4.5565 11.314C4.78984 11.594 5.21567 11.594 5.449 11.314C6.50484 10.0365 9.08317 6.68234 9.08317 4.24984C9.08317 1.99234 7.25734 0.166504 4.99984 0.166504ZM4.99984 5.70817C4.19484 5.70817 3.5415 5.05484 3.5415 4.24984C3.5415 3.44484 4.19484 2.7915 4.99984 2.7915C5.80484 2.7915 6.45817 3.44484 6.45817 4.24984C6.45817 5.05484 5.80484 5.70817 4.99984 5.70817Z" fill="#000033" fill-opacity="0.95"/>
</svg>
