<svg width="46" height="44" viewBox="0 0 46 44" fill="none" xmlns="http://www.w3.org/2000/svg">
<path d="M41 9.5H34.25V5C34.25 2.5025 32.2475 0.5 29.75 0.5H16.25C13.7525 0.5 11.75 2.5025 11.75 5V9.5H5C2.5025 9.5 0.5 11.5025 0.5 14V38.75C0.5 41.2475 2.5025 43.25 5 43.25H41C43.4975 43.25 45.5 41.2475 45.5 38.75V14C45.5 11.5025 43.4975 9.5 41 9.5ZM16.25 5H29.75V9.5H16.25V5ZM41 38.75H5V34.25H41V38.75ZM41 27.5H5V16.25C5 15.0125 6.0125 14 7.25 14H11.75V16.25C11.75 17.4875 12.7625 18.5 14 18.5C15.2375 18.5 16.25 17.4875 16.25 16.25V14H29.75V16.25C29.75 17.4875 30.7625 18.5 32 18.5C33.2375 18.5 34.25 17.4875 34.25 16.25V14H38.75C39.9875 14 41 15.0125 41 16.25V27.5Z" fill="#1B5FC7"/>
</svg>
