<svg width="94" height="67" viewBox="0 0 94 67" fill="none" xmlns="http://www.w3.org/2000/svg">
<rect x="0.956543" y="0.140625" width="92.5068" height="66.5166" rx="5" fill="#1B5FC7"/>
<g clip-path="url(#clip0_1_5)">
<path d="M59.5511 46.4473C58.5962 45.6417 57.6626 44.8087 56.7512 43.9493C55.9891 43.2669 55.522 42.7627 55.522 42.7627L50.0436 40.5911C51.9275 37.9083 52.8072 34.5893 52.5175 31.2564C51.8566 23.6688 45.4318 18.0057 38.1951 18.636C30.9584 19.2664 25.6095 25.955 26.2704 33.5426C26.9313 41.1303 33.3561 46.7935 40.5928 46.1631C43.898 45.8752 46.7977 44.3151 48.9246 41.9922L51.9107 47.2792C51.9107 47.2792 52.4646 47.6748 53.2371 48.3444C54.0247 48.9951 55.0631 49.8773 56.0659 50.8063L58.8502 53.3215L60.0932 54.4931L63.7064 49.9763L62.3918 48.8942C61.6176 48.2247 60.5844 47.336 59.5511 46.4473ZM40.2503 42.2307C35.0815 42.6809 30.4921 38.6369 30.02 33.216C29.5478 27.7952 33.3688 23.0187 38.5376 22.5685C43.7064 22.1183 48.2957 26.1622 48.7679 31.583C49.24 37.0039 45.419 41.7805 40.2503 42.2307Z" fill="white"/>
</g>
<defs>
<clipPath id="clip0_1_5">
<rect width="37" height="38" fill="white" transform="translate(24.4211 19.677) rotate(-4.97806)"/>
</clipPath>
</defs>
</svg>
