<svg width="46" height="45" viewBox="0 0 46 45" fill="none" xmlns="http://www.w3.org/2000/svg">
<path d="M23.155 0.0156097L14.55 5.4023H7.17756V9.96728L2.5441 12.9117C1.22025 13.7106 0.330078 15.1485 0.330078 16.8148V39.6397C0.330078 40.8504 0.811031 42.0115 1.66713 42.8676C2.52323 43.7237 3.68436 44.2047 4.89507 44.2047H41.415C43.9485 44.2047 45.98 42.1733 45.98 39.6397V16.8148C45.98 15.1485 45.0898 13.7106 43.7659 12.9117L39.1325 9.96728V5.4023H31.76L23.155 0.0156097ZM11.7425 9.96728H34.5675V21.1059L23.155 28.2272L11.7425 21.1059V9.96728ZM14.025 12.2498V15.6735H32.285V12.2498H14.025ZM7.17756 15.3996V18.2527L4.89507 16.8148L7.17756 15.3996ZM39.1325 15.3996L41.415 16.8148L39.1325 18.2527V15.3996ZM14.025 17.956V21.3797H32.285V17.956H14.025Z" fill="#1B5FC7"/>
</svg>
