<svg width="42" height="50" viewBox="0 0 42 50" fill="none" xmlns="http://www.w3.org/2000/svg">
<path d="M19.65 0.294856C8.895 0.992356 0.75 10.4199 0.75 21.1974V36.2499C0.75 39.9849 3.765 42.9999 7.5 42.9999H9.75C12.225 42.9999 14.25 40.9749 14.25 38.4999V29.4999C14.25 27.0249 12.225 24.9999 9.75 24.9999H5.25V21.1524C5.25 12.5124 11.91 4.99736 20.5275 4.74986C29.46 4.50236 36.75 11.6349 36.75 20.4999V24.9999H32.25C29.775 24.9999 27.75 27.0249 27.75 29.4999V38.4999C27.75 40.9749 29.775 42.9999 32.25 42.9999H36.75V45.2499H23.25C22.0125 45.2499 21 46.2624 21 47.4999C21 48.7374 22.0125 49.7499 23.25 49.7499H34.5C38.235 49.7499 41.25 46.7349 41.25 42.9999V20.4999C41.25 8.86736 31.44 -0.470144 19.65 0.294856Z" fill="#1B5FC7"/>
</svg>
