<svg width="40" height="46" viewBox="0 0 40 46" fill="none" xmlns="http://www.w3.org/2000/svg">
<path d="M39.6876 11.7275C39.3726 10.49 38.1351 9.77 36.8976 10.04C31.5426 11.2325 25.5801 11.75 20.0001 11.75C14.4201 11.75 8.45762 11.2325 3.10262 10.04C1.86512 9.77 0.627616 10.49 0.312616 11.7275C-0.0023839 12.9875 0.762616 14.27 2.00012 14.5625C5.62262 15.3725 9.53762 15.935 13.2501 16.25V43.25C13.2501 44.4875 14.2626 45.5 15.5001 45.5C16.7376 45.5 17.7501 44.4875 17.7501 43.25V32H22.2501V43.25C22.2501 44.4875 23.2626 45.5 24.5001 45.5C25.7376 45.5 26.7501 44.4875 26.7501 43.25V16.25C30.4626 15.935 34.3776 15.3725 37.9776 14.5625C39.2376 14.27 40.0026 12.9875 39.6876 11.7275ZM20.0001 9.5C22.4751 9.5 24.5001 7.475 24.5001 5C24.5001 2.525 22.4751 0.5 20.0001 0.5C17.5251 0.5 15.5001 2.525 15.5001 5C15.5001 7.475 17.5251 9.5 20.0001 9.5Z" fill="#1B5FC7"/>
</svg>
