<svg width="17" height="14" viewBox="0 0 17 14" fill="none" xmlns="http://www.w3.org/2000/svg">
<path d="M9.9154 6.91999V13.592H16.6354V9.17599C16.6354 7.51199 16.3474 5.99199 15.7714 4.61599C15.1954 3.23999 14.2194 1.86399 12.8434 0.487991L10.3474 2.40799C11.1154 3.27199 11.7234 4.05599 12.1714 4.75999C12.5874 5.46399 12.8594 6.18399 12.9874 6.91999H9.9154ZM0.651398 6.91999V13.592H7.3714V9.17599C7.3714 7.51199 7.0834 5.99199 6.5074 4.61599C5.9314 3.23999 4.9554 1.86399 3.5794 0.487991L1.0834 2.40799C1.8514 3.27199 2.4594 4.05599 2.9074 4.75999C3.3234 5.46399 3.5954 6.18399 3.7234 6.91999H0.651398Z" fill="#1B5FC7"/>
</svg>
