<svg width="18" height="18" viewBox="0 0 18 18" fill="none" xmlns="http://www.w3.org/2000/svg">
<path d="M8.9915 0.666504C4.3915 0.666504 0.666504 4.39984 0.666504 8.99984C0.666504 13.5998 4.3915 17.3332 8.9915 17.3332C13.5998 17.3332 17.3332 13.5998 17.3332 8.99984C17.3332 4.39984 13.5998 0.666504 8.9915 0.666504ZM8.99984 15.6665C5.3165 15.6665 2.33317 12.6832 2.33317 8.99984C2.33317 5.3165 5.3165 2.33317 8.99984 2.33317C12.6832 2.33317 15.6665 5.3165 15.6665 8.99984C15.6665 12.6832 12.6832 15.6665 8.99984 15.6665ZM8.8165 4.83317H8.7665C8.43317 4.83317 8.1665 5.09984 8.1665 5.43317V9.3665C8.1665 9.65817 8.3165 9.93317 8.57484 10.0832L12.0332 12.1582C12.3165 12.3248 12.6832 12.2415 12.8498 11.9582C13.0248 11.6748 12.9332 11.2998 12.6415 11.1332L9.4165 9.2165V5.43317C9.4165 5.09984 9.14984 4.83317 8.8165 4.83317Z" fill="#029837"/>
</svg>
